<svg xmlns="http://www.w3.org/2000/svg" viewBox="0 0 64 64" width="64" height="64">
  <!-- Background circle -->
  <circle cx="32" cy="32" r="30" fill="#1976d2"/>
  
  <!-- Folder icon -->
  <path d="M18 22 L28 22 L30 18 L46 18 C48 18 50 20 50 22 L50 42 C50 44 48 46 46 46 L18 46 C16 46 14 44 14 42 L14 26 C14 24 16 22 18 22 Z" 
        fill="#FFA726" 
        stroke="#fff" 
        stroke-width="1.5"/>
  
  <!-- File icon inside folder -->
  <rect x="24" y="28" width="14" height="12" rx="1" fill="#fff" opacity="0.9"/>
  <line x1="26" y1="31" x2="36" y2="31" stroke="#1976d2" stroke-width="1.5"/>
  <line x1="26" y1="34" x2="36" y2="34" stroke="#1976d2" stroke-width="1.5"/>
  <line x1="26" y1="37" x2="33" y2="37" stroke="#1976d2" stroke-width="1.5"/>
</svg>


